<?xml version="1.0" encoding="UTF-8"?>
<!DOCTYPE svg PUBLIC "-//W3C//DTD SVG 1.1//EN" "http://www.w3.org/Graphics/SVG/1.1/DTD/svg11.dtd">
<svg xmlns="http://www.w3.org/2000/svg" version="1.1" width="110px" height="119px" style="shape-rendering:geometricPrecision; text-rendering:geometricPrecision; image-rendering:optimizeQuality; fill-rule:evenodd; clip-rule:evenodd" xmlns:xlink="http://www.w3.org/1999/xlink">
<g><path style="opacity:1" fill="#fbfcfd" d="M -0.5,-0.5 C 36.1667,-0.5 72.8333,-0.5 109.5,-0.5C 109.5,39.1667 109.5,78.8333 109.5,118.5C 72.8333,118.5 36.1667,118.5 -0.5,118.5C -0.5,78.8333 -0.5,39.1667 -0.5,-0.5 Z"/></g>
<g><path style="opacity:1" fill="#13519a" d="M 53.5,3.5 C 59.4352,6.13551 65.1018,9.30217 70.5,13C 65.0414,15.632 59.708,18.4654 54.5,21.5C 49.292,18.4654 43.9586,15.632 38.5,13C 43.6737,9.97026 48.6737,6.80359 53.5,3.5 Z"/></g>
<g><path style="opacity:1" fill="#0d5099" d="M 22.5,21.5 C 27.638,24.2371 32.638,27.2371 37.5,30.5C 33.1059,34.1185 28.2726,37.1185 23,39.5C 17.769,36.8008 12.6024,33.9675 7.5,31C 12.5644,27.8087 17.5644,24.6421 22.5,21.5 Z"/></g>
<g><path style="opacity:1" fill="#0e5099" d="M 85.5,21.5 C 90.9708,24.4034 96.3041,27.57 101.5,31C 96.3976,33.9675 91.231,36.8008 86,39.5C 80.8909,36.6956 75.7242,34.0289 70.5,31.5C 65.1667,34.1667 59.8333,36.8333 54.5,39.5C 49.2127,37.1892 44.2127,34.3559 39.5,31C 44.2127,27.6441 49.2127,24.8108 54.5,22.5C 59.7242,25.0289 64.8909,27.6956 70,30.5C 75.4592,27.8588 80.6259,24.8588 85.5,21.5 Z"/></g>
<g><path style="opacity:1" fill="#084e98" d="M 4.5,35.5 C 9.60486,37.8869 14.6049,40.5536 19.5,43.5C 20.8333,49.5 20.8333,55.5 19.5,61.5C 14.8333,58.8333 10.1667,56.1667 5.5,53.5C 4.50408,47.5368 4.17075,41.5368 4.5,35.5 Z"/></g>
<g><path style="opacity:1" fill="#074e98" d="M 102.5,35.5 C 103.816,38.0866 104.483,41.0866 104.5,44.5C 104.167,47.5 103.833,50.5 103.5,53.5C 98.8333,56.1667 94.1667,58.8333 89.5,61.5C 88.1667,55.5 88.1667,49.5 89.5,43.5C 94.0645,41.0588 98.3979,38.3921 102.5,35.5 Z"/></g>
<g><path style="opacity:1" fill="#12519a" d="M 52.5,40.5 C 58.8139,42.4883 64.8139,45.3216 70.5,49C 65.8333,51.6667 61.1667,54.3333 56.5,57C 55.1667,57.6667 53.8333,57.6667 52.5,57C 47.8333,54.3333 43.1667,51.6667 38.5,49C 43.3968,46.3922 48.0635,43.5589 52.5,40.5 Z"/></g>
<g><path style="opacity:1" fill="#064d98" d="M 36.5,71.5 C 36.3338,65.4908 36.5005,59.4908 37,53.5C 41.6304,55.9675 46.1304,58.6342 50.5,61.5C 51.8333,67.5 51.8333,73.5 50.5,79.5C 45.806,76.8215 41.1393,74.1548 36.5,71.5 Z"/></g>
<g><path style="opacity:1" fill="#064d98" d="M 72.5,71.5 C 67.8607,74.1548 63.194,76.8215 58.5,79.5C 57.1667,73.5 57.1667,67.5 58.5,61.5C 62.8696,58.6342 67.3696,55.9675 72,53.5C 72.4995,59.4908 72.6662,65.4908 72.5,71.5 Z"/></g>
<g><path style="opacity:1" fill="#0b4f99" d="M 36.5,71.5 C 36.5,77.5 36.5,83.5 36.5,89.5C 36.1667,89.5 35.8333,89.5 35.5,89.5C 30.8146,86.3998 25.9813,83.3998 21,80.5C 20.6667,86.5 20.3333,92.5 20,98.5C 15,95.5 10,92.5 5,89.5C 4.33333,83.5 4.33333,77.5 5,71.5C 9.70626,74.3673 14.5396,77.034 19.5,79.5C 20.3299,73.8624 20.8299,68.1958 21,62.5C 26.1123,65.6379 31.2789,68.6379 36.5,71.5 Z"/></g>
<g><path style="opacity:1" fill="#0b4f99" d="M 73.5,89.5 C 73.1667,89.5 72.8333,89.5 72.5,89.5C 72.5,83.5 72.5,77.5 72.5,71.5C 77.7211,68.6379 82.8877,65.6379 88,62.5C 88.1701,68.1958 88.6701,73.8624 89.5,79.5C 94.4604,77.034 99.2937,74.3673 104,71.5C 104.667,77.5 104.667,83.5 104,89.5C 99,92.5 94,95.5 89,98.5C 88.6667,92.5 88.3333,86.5 88,80.5C 83.0187,83.3998 78.1854,86.3998 73.5,89.5 Z"/></g>
<g><path style="opacity:1" fill="#bacfe3" d="M 35.5,89.5 C 35.8333,89.5 36.1667,89.5 36.5,89.5C 37.1667,89.5 37.5,89.8333 37.5,90.5C 36.5111,95.9753 36.1778,101.642 36.5,107.5C 35.5104,101.69 35.1771,95.69 35.5,89.5 Z"/></g>
<g><path style="opacity:1" fill="#bacee3" d="M 71.5,90.5 C 71.5,89.8333 71.8333,89.5 72.5,89.5C 72.8333,89.5 73.1667,89.5 73.5,89.5C 73.8229,95.69 73.4896,101.69 72.5,107.5C 72.8222,101.642 72.4889,95.9753 71.5,90.5 Z"/></g>
<g><path style="opacity:1" fill="#074e98" d="M 37.5,90.5 C 42.4463,92.8026 47.1129,95.4693 51.5,98.5C 51.8222,104.358 51.4889,110.025 50.5,115.5C 45.8333,112.833 41.1667,110.167 36.5,107.5C 36.1778,101.642 36.5111,95.9753 37.5,90.5 Z"/></g>
<g><path style="opacity:1" fill="#074e98" d="M 71.5,90.5 C 72.4889,95.9753 72.8222,101.642 72.5,107.5C 67.8333,110.167 63.1667,112.833 58.5,115.5C 57.5111,110.025 57.1778,104.358 57.5,98.5C 61.8871,95.4693 66.5537,92.8026 71.5,90.5 Z"/></g>
<g><path style="opacity:1" fill="#80a5cb" d="M 51.5,98.5 C 52.8166,104.346 52.8166,110.346 51.5,116.5C 50.8933,116.376 50.56,116.043 50.5,115.5C 51.4889,110.025 51.8222,104.358 51.5,98.5 Z"/></g>
<g><path style="opacity:1" fill="#80a5cb" d="M 57.5,98.5 C 57.1778,104.358 57.5111,110.025 58.5,115.5C 58.44,116.043 58.1067,116.376 57.5,116.5C 56.1834,110.346 56.1834,104.346 57.5,98.5 Z"/></g>
</svg>
