<?xml version="1.0" standalone="no"?>
<!DOCTYPE svg PUBLIC "-//W3C//DTD SVG 20010904//EN"
 "http://www.w3.org/TR/2001/REC-SVG-20010904/DTD/svg10.dtd">
<svg version="1.0" xmlns="http://www.w3.org/2000/svg"
 width="110.000000pt" height="119.000000pt" viewBox="0 0 110.000000 119.000000"
 preserveAspectRatio="xMidYMid meet">

<g transform="translate(0.000000,119.000000) scale(0.100000,-0.100000)"
fill="#000000" stroke="none">
<path d="M472 1103 l-74 -46 76 -44 76 -45 76 45 76 44 -76 47 c-42 25 -78 46
-79 45 -1 0 -35 -21 -75 -46z"/>
<path d="M156 922 l-78 -44 68 -40 c38 -22 74 -42 81 -45 12 -5 153 74 153 86
0 3 -33 24 -73 46 l-72 41 -79 -44z"/>
<path d="M793 926 c-40 -23 -73 -44 -73 -47 0 -12 141 -91 153 -86 7 3 43 23
81 45 l68 40 -68 37 c-38 21 -73 41 -79 45 -5 4 -43 -12 -82 -34z"/>
<path d="M466 918 c-51 -30 -65 -43 -55 -49 8 -5 42 -26 77 -45 l62 -36 63 36
c34 19 68 40 76 45 10 6 -5 19 -57 50 -39 22 -76 41 -84 41 -7 -1 -44 -19 -82
-42z"/>
<path d="M50 743 l0 -88 75 -42 c41 -24 77 -43 80 -43 3 0 5 39 5 88 l0 87
-80 43 -80 43 0 -88z"/>
<path d="M968 787 l-78 -42 0 -87 c0 -49 2 -88 5 -88 3 0 39 19 80 43 l75 42
0 88 c0 48 -1 87 -2 87 -2 0 -38 -19 -80 -43z"/>
<path d="M478 742 c-37 -21 -70 -40 -73 -44 -4 -3 28 -25 69 -48 l76 -41 75
41 c41 23 75 43 75 45 0 4 -145 85 -151 85 -2 0 -34 -17 -71 -38z"/>
<path d="M372 561 l3 -92 73 -40 72 -41 0 89 c0 85 -1 88 -28 104 -15 8 -49
28 -75 43 l-48 28 3 -91z"/>
<path d="M653 607 l-73 -42 0 -88 0 -89 68 37 c37 21 71 41 75 45 4 4 7 46 5
93 l-3 86 -72 -42z"/>
<path d="M210 473 l0 -88 78 -47 77 -46 3 86 c3 98 10 88 -100 150 l-58 33 0
-88z"/>
<path d="M808 514 l-78 -45 0 -90 0 -91 23 14 c12 8 48 30 80 49 l57 34 0 87
c0 49 -1 88 -2 88 -2 0 -38 -21 -80 -46z"/>
<path d="M50 382 l0 -90 80 -45 80 -46 0 89 0 89 -72 42 c-40 23 -76 44 -80
46 -5 2 -8 -36 -8 -85z"/>
<path d="M968 424 l-78 -45 0 -89 0 -89 80 46 80 45 0 89 c0 49 -1 89 -2 89
-2 0 -38 -21 -80 -46z"/>
<path d="M370 195 l0 -84 69 -41 c38 -22 72 -40 76 -40 3 0 4 39 3 87 l-3 87
-65 38 c-36 21 -68 38 -72 38 -5 0 -8 -38 -8 -85z"/>
<path d="M650 242 l-65 -38 -3 -87 c-1 -48 0 -87 3 -87 4 0 38 18 76 40 l69
41 0 84 c0 47 -3 85 -7 85 -5 0 -37 -17 -73 -38z"/>
</g>
</svg>
