<svg xmlns="http://www.w3.org/2000/svg" width="110" height="119" viewBox="0 0 110 119" version="1.1"><path d="M 48.143 7.942 C 44.647 10.071, 41.347 12.253, 40.810 12.790 C 40.174 13.426, 42.479 15.228, 47.416 17.954 L 55 22.140 62.512 17.994 C 66.643 15.713, 69.801 13.488, 69.530 13.048 C 69.054 12.278, 55.488 3.963, 54.825 4.035 C 54.646 4.055, 51.640 5.813, 48.143 7.942 M 15.563 26.685 L 7.678 31.255 11.589 33.618 C 13.740 34.918, 17.354 36.967, 19.620 38.170 L 23.740 40.359 31.445 35.818 L 39.150 31.278 34.325 28.507 C 31.671 26.984, 28.138 24.922, 26.474 23.925 L 23.449 22.114 15.563 26.685 M 78.677 26.730 L 70.855 31.263 78.177 35.620 C 82.205 38.017, 85.891 39.983, 86.370 39.989 C 86.848 39.995, 90.596 38.091, 94.697 35.757 C 103.179 30.931, 103.378 31.722, 92.085 25.348 L 86.500 22.196 78.677 26.730 M 47.682 26.398 C 44.483 28.233, 41.413 30.187, 40.860 30.740 C 40.188 31.412, 42.221 33.108, 47.016 35.872 C 50.954 38.142, 54.547 40, 55 40 C 56.750 40, 69.981 31.778, 69.495 30.992 C 68.702 29.709, 56.344 22.996, 54.838 23.030 C 54.102 23.047, 50.882 24.562, 47.682 26.398 M 5 44.801 L 5 53.602 12.380 57.801 C 16.439 60.110, 20.039 62, 20.380 62 C 20.721 62, 20.995 58.063, 20.989 53.250 L 20.979 44.500 13.522 40.250 C 9.420 37.913, 5.825 36, 5.532 36 C 5.240 36, 5 39.960, 5 44.801 M 96.261 40.302 L 89.022 44.500 89.011 53.250 C 89.005 58.063, 89.279 62, 89.620 62 C 89.961 62, 93.561 60.110, 97.620 57.801 L 105 53.602 105 44.801 C 105 39.960, 104.662 36.023, 104.250 36.052 C 103.838 36.081, 100.243 37.993, 96.261 40.302 M 46.333 45.312 L 39.167 49.534 46.551 53.767 C 50.613 56.095, 54.415 58, 55 58 C 55.585 58, 59.387 56.095, 63.449 53.767 L 70.833 49.534 63.667 45.312 C 59.725 42.990, 55.825 41.090, 55 41.090 C 54.175 41.090, 50.275 42.990, 46.333 45.312 M 37 62.818 L 37 71.827 44.088 75.914 C 47.986 78.161, 51.361 80, 51.588 80 C 51.815 80, 52 76.058, 52 71.241 C 52 63.981, 51.700 62.294, 50.250 61.389 C 49.288 60.789, 45.913 58.837, 42.750 57.053 L 37 53.809 37 62.818 M 65.250 58.193 L 58 62.378 58 71.189 C 58 76.035, 58.185 80, 58.412 80 C 58.639 80, 62.014 78.161, 65.912 75.914 L 73 71.827 73 62.914 C 73 58.011, 72.888 54.002, 72.750 54.004 C 72.612 54.006, 69.237 55.891, 65.250 58.193 M 21 71.414 C 21 76.136, 20.718 80, 20.373 80 C 20.028 80, 16.411 78.159, 12.334 75.909 L 4.923 71.817 5.211 81.029 L 5.500 90.240 13 94.508 L 20.500 98.775 21 89.909 L 21.500 81.044 29 85.491 L 36.500 89.938 37 99.169 L 37.500 108.401 44 112.181 C 47.575 114.260, 50.837 115.970, 51.250 115.980 C 51.663 115.991, 51.991 112.063, 51.981 107.250 L 51.962 98.500 44.731 94.486 L 37.500 90.473 37.214 81.329 C 37.036 75.664, 36.466 71.824, 35.714 71.236 C 35.046 70.714, 31.462 68.609, 27.750 66.557 L 21 62.828 21 71.414 M 81 67.296 L 73.500 71.553 73 81.014 L 72.500 90.475 65.269 94.488 L 58.038 98.500 58.019 107.250 C 58.009 112.063, 58.337 115.991, 58.750 115.980 C 59.163 115.970, 62.425 114.260, 66 112.181 L 72.500 108.401 73 99.169 L 73.500 89.938 81 85.491 L 88.500 81.044 89 89.909 L 89.500 98.775 97 94.508 L 104.500 90.240 104.789 81.029 L 105.077 71.817 97.666 75.909 C 93.589 78.159, 89.989 80, 89.666 80 C 89.342 80, 88.948 76.184, 88.789 71.520 L 88.500 63.040 81 67.296" stroke="none" fill="#064e9d" fill-rule="evenodd"/><path d="M 0 59.508 L 0 119.017 55.250 118.758 L 110.500 118.500 110.758 59.250 L 111.016 0 55.508 0 L 0 0 0 59.508 M 0.469 60 C 0.469 92.725, 0.595 106.112, 0.749 89.750 C 0.904 73.387, 0.904 46.612, 0.749 30.250 C 0.595 13.887, 0.469 27.275, 0.469 60 M 48.143 7.942 C 44.647 10.071, 41.347 12.253, 40.810 12.790 C 40.174 13.426, 42.479 15.228, 47.416 17.954 L 55 22.140 62.512 17.994 C 66.643 15.713, 69.801 13.488, 69.530 13.048 C 69.054 12.278, 55.488 3.963, 54.825 4.035 C 54.646 4.055, 51.640 5.813, 48.143 7.942 M 15.563 26.685 L 7.678 31.255 11.589 33.618 C 13.740 34.918, 17.354 36.967, 19.620 38.170 L 23.740 40.359 31.445 35.818 L 39.150 31.278 34.325 28.507 C 31.671 26.984, 28.138 24.922, 26.474 23.925 L 23.449 22.114 15.563 26.685 M 78.677 26.730 L 70.855 31.263 78.177 35.620 C 82.205 38.017, 85.891 39.983, 86.370 39.989 C 86.848 39.995, 90.596 38.091, 94.697 35.757 C 103.179 30.931, 103.378 31.722, 92.085 25.348 L 86.500 22.196 78.677 26.730 M 47.682 26.398 C 44.483 28.233, 41.413 30.187, 40.860 30.740 C 40.188 31.412, 42.221 33.108, 47.016 35.872 C 50.954 38.142, 54.547 40, 55 40 C 56.750 40, 69.981 31.778, 69.495 30.992 C 68.702 29.709, 56.344 22.996, 54.838 23.030 C 54.102 23.047, 50.882 24.562, 47.682 26.398 M 5 44.801 L 5 53.602 12.380 57.801 C 16.439 60.110, 20.039 62, 20.380 62 C 20.721 62, 20.995 58.063, 20.989 53.250 L 20.979 44.500 13.522 40.250 C 9.420 37.913, 5.825 36, 5.532 36 C 5.240 36, 5 39.960, 5 44.801 M 96.261 40.302 L 89.022 44.500 89.011 53.250 C 89.005 58.063, 89.279 62, 89.620 62 C 89.961 62, 93.561 60.110, 97.620 57.801 L 105 53.602 105 44.801 C 105 39.960, 104.662 36.023, 104.250 36.052 C 103.838 36.081, 100.243 37.993, 96.261 40.302 M 46.333 45.312 L 39.167 49.534 46.551 53.767 C 50.613 56.095, 54.415 58, 55 58 C 55.585 58, 59.387 56.095, 63.449 53.767 L 70.833 49.534 63.667 45.312 C 59.725 42.990, 55.825 41.090, 55 41.090 C 54.175 41.090, 50.275 42.990, 46.333 45.312 M 37 62.818 L 37 71.827 44.088 75.914 C 47.986 78.161, 51.361 80, 51.588 80 C 51.815 80, 52 76.058, 52 71.241 C 52 63.981, 51.700 62.294, 50.250 61.389 C 49.288 60.789, 45.913 58.837, 42.750 57.053 L 37 53.809 37 62.818 M 65.250 58.193 L 58 62.378 58 71.189 C 58 76.035, 58.185 80, 58.412 80 C 58.639 80, 62.014 78.161, 65.912 75.914 L 73 71.827 73 62.914 C 73 58.011, 72.888 54.002, 72.750 54.004 C 72.612 54.006, 69.237 55.891, 65.250 58.193 M 21 71.414 C 21 76.136, 20.718 80, 20.373 80 C 20.028 80, 16.411 78.159, 12.334 75.909 L 4.923 71.817 5.211 81.029 L 5.500 90.240 13 94.508 L 20.500 98.775 21 89.909 L 21.500 81.044 29 85.491 L 36.500 89.938 37 99.169 L 37.500 108.401 44 112.181 C 47.575 114.260, 50.837 115.970, 51.250 115.980 C 51.663 115.991, 51.991 112.063, 51.981 107.250 L 51.962 98.500 44.731 94.486 L 37.500 90.473 37.214 81.329 C 37.036 75.664, 36.466 71.824, 35.714 71.236 C 35.046 70.714, 31.462 68.609, 27.750 66.557 L 21 62.828 21 71.414 M 81 67.296 L 73.500 71.553 73 81.014 L 72.500 90.475 65.269 94.488 L 58.038 98.500 58.019 107.250 C 58.009 112.063, 58.337 115.991, 58.750 115.980 C 59.163 115.970, 62.425 114.260, 66 112.181 L 72.500 108.401 73 99.169 L 73.500 89.938 81 85.491 L 88.500 81.044 89 89.909 L 89.500 98.775 97 94.508 L 104.500 90.240 104.789 81.029 L 105.077 71.817 97.666 75.909 C 93.589 78.159, 89.989 80, 89.666 80 C 89.342 80, 88.948 76.184, 88.789 71.520 L 88.500 63.040 81 67.296" stroke="none" fill="#f8f9fa" fill-rule="evenodd"/></svg>